<svg xmlns="http://www.w3.org/2000/svg" viewBox="0 0 64 80" x="0px" y="0px"><title>a</title><g><path d="M37,46a1,1,0,0,0,1-1V44a1,1,0,0,0-2,0v1A1,1,0,0,0,37,46Z"/><path d="M56,52H55V34h1a.93.93,0,0,0,.29,0l.09,0,.17-.09.09-.07a.74.74,0,0,0,.12-.13l.07-.09,0,0,.05-.12,0-.06s0,0,0,0A1.13,1.13,0,0,0,57,33s0,0,0,0a.93.93,0,0,0,0-.29l0-.08a.61.61,0,0,0-.07-.14l-8-13A1,1,0,0,0,48,19H16a1,1,0,0,0-.85.48l-8,13a1,1,0,0,0,0,1A1,1,0,0,0,8,34H9V52H8a1,1,0,0,0-1,1v3a1,1,0,0,0,1,1H56a1,1,0,0,0,1-1V53A1,1,0,0,0,56,52Zm-3,0H43V37a1,1,0,0,0-1-1H34a1,1,0,0,0-1,1V52H31V34H53ZM41,52H35V38h6ZM31.12,32,42,24.23,52.88,32ZM16.56,21H47.44l5.12,8.31-10-7.12a1,1,0,0,0-1.16,0L27.68,32H9.79ZM11,34H29V52H28V36a1,1,0,0,0-1-1H13a1,1,0,0,0-1,1V52H11ZM26,52H14V37H26Zm29,3H9V54H55Z"/><path d="M45,50h6a1,1,0,0,0,1-1V37a1,1,0,0,0-1-1H45a1,1,0,0,0-1,1V49A1,1,0,0,0,45,50Zm1-2V44h4v4Zm4-10v4H46V38Z"/><path d="M16,41h8a1,1,0,0,0,0-2H16a1,1,0,0,0,0,2Z"/><path d="M16,44h8a1,1,0,0,0,0-2H16a1,1,0,0,0,0,2Z"/><path d="M16,47h8a1,1,0,0,0,0-2H16a1,1,0,0,0,0,2Z"/><path d="M16,50h8a1,1,0,0,0,0-2H16a1,1,0,0,0,0,2Z"/></g><text x="0" y="79" fill="#000000" font-size="5px" font-weight="bold" font-family="'Helvetica Neue', Helvetica, Arial-Unicode, Arial, Sans-serif">Created by Berkah Icon</text><text x="0" y="84" fill="#000000" font-size="5px" font-weight="bold" font-family="'Helvetica Neue', Helvetica, Arial-Unicode, Arial, Sans-serif">from the Noun Project</text></svg>